<?xml version="1.0" encoding="utf-8"?>
<!-- Generator: Adobe Illustrator 16.0.3, SVG Export Plug-In . SVG Version: 6.00 Build 0)  -->
<!DOCTYPE svg PUBLIC "-//W3C//DTD SVG 1.1//EN" "http://www.w3.org/Graphics/SVG/1.1/DTD/svg11.dtd">
<svg version="1.1" xmlns="http://www.w3.org/2000/svg" xmlns:xlink="http://www.w3.org/1999/xlink" x="0px" y="0px" width="586px"
	 height="584px" viewBox="0 0 586 584" enable-background="new 0 0 586 584" xml:space="preserve">
<g id="Layer_2">
	<polygon points="155.167,99.833 155.167,225.358 425.014,527.422 425.014,371.02 312.912,249.523 449.85,99.833 322.98,99.833 
		256.527,174.342 256.527,99.833 	"/>
	<polygon points="155.167,247.173 155.167,287.113 256.526,399.885 256.526,358.938 	"/>
	<polygon points="155.167,309.936 155.167,384.111 256.526,493.861 256.526,421.699 	"/>
</g>
<g id="Layer_3">
	<path d="M295.998,26.667c-148.73,0-269.302,120.063-269.302,268.165C26.696,442.938,147.268,563,295.998,563
		c148.736,0,269.307-120.064,269.307-268.168C565.305,146.729,444.734,26.667,295.998,26.667z M296.969,537.387
		c-134.741,0-243.973-108.77-243.973-242.943c0-134.171,109.232-242.941,243.973-242.941c134.744,0,243.973,108.77,243.973,242.941
		S431.713,537.387,296.969,537.387z"/>
</g>
</svg>
